<svg xmlns="http://www.w3.org/2000/svg" width="90" height="88" viewBox="0 0 90 88">
  <metadata><?xpacket begin="﻿" id="W5M0MpCehiHzreSzNTczkc9d"?>
<x:xmpmeta xmlns:x="adobe:ns:meta/" x:xmptk="Adobe XMP Core 5.6-c142 79.160924, 2017/07/13-01:06:39        ">
   <rdf:RDF xmlns:rdf="http://www.w3.org/1999/02/22-rdf-syntax-ns#">
      <rdf:Description rdf:about=""/>
   </rdf:RDF>
</x:xmpmeta>
                                                                                                    
                                                                                                    
                                                                                                    
                                                                                                    
                                                                                                    
                                                                                                    
                                                                                                    
                                                                                                    
                                                                                                    
                                                                                                    
                                                                                                    
                                                                                                    
                                                                                                    
                                                                                                    
                                                                                                    
                                                                                                    
                                                                                                    
                                                                                                    
                                                                                                    
                                                                                                    
                           
<?xpacket end="w"?></metadata>
<defs>
    <style>
      .cls-1 {
        fill: #232323;
        fill-rule: evenodd;
      }
    </style>
  </defs>
  <path class="cls-1" d="M1021.49,2756a1.46,1.46,0,0,0,1.23-.66c0.01,0,.01-0.02.02-0.02a1.489,1.489,0,0,0-2.48-1.65h-0.01a1.517,1.517,0,0,0,.41,2.08,1.469,1.469,0,0,0,.83.25m-3.22,45.48-3.72-.22a3.422,3.422,0,0,0-2.5.86l-2.79,2.48a3.386,3.386,0,0,0-1.15,2.37l-0.22,3.73a3.407,3.407,0,0,0,.87,2.49l2.47,2.79a3.428,3.428,0,0,0,2.38,1.15l3.73,0.22c0.07,0,.14.01,0.2,0.01a3.4,3.4,0,0,0,2.29-.88l2.79-2.47h0a3.46,3.46,0,0,0,1.16-2.38l0.22-3.72a3.434,3.434,0,0,0-.87-2.49l-2.48-2.79A3.408,3.408,0,0,0,1018.27,2801.48Zm2.95,6.27-0.22,3.72a0.692,0.692,0,0,1-.22.46l-2.79,2.48a0.733,0.733,0,0,1-.49.17l-3.72-.22a0.705,0.705,0,0,1-.47-0.23l-2.48-2.79a0.682,0.682,0,0,1-.16-0.48l0.22-3.72a0.652,0.652,0,0,1,.22-0.46l2.79-2.48a0.656,0.656,0,0,1,.44-0.17h0.04l3.73,0.22a0.652,0.652,0,0,1,.46.22l2.48,2.79A0.67,0.67,0,0,1,1021.22,2807.75Zm67.16,4.22-31.43-29.94,11.55-10.24,8.12,0.48a6.336,6.336,0,0,0,4.61-1.6l5.01-4.45a6.32,6.32,0,0,0,2.13-4.38l0.28-4.78a3.04,3.04,0,0,0-5.05-2.45l-8.19,7.28a0.263,0.263,0,0,1-.19.06,0.225,0.225,0,0,1-.17-0.08l-5.16-5.8a0.257,0.257,0,0,1,.02-0.37l8.02-7.11a3.036,3.036,0,0,0-1.84-5.3l-4.46-.26a6.319,6.319,0,0,0-4.6,1.59l-5.01,4.45a6.322,6.322,0,0,0-2.13,4.39l-0.45,8.19-12.36,10.98-16.45-15.66,7.55-11.26a4.5,4.5,0,0,0-.56-5.7l-1.68-1.69a4.555,4.555,0,0,0-5.72-.56l-11.6,7.77a5.038,5.038,0,0,0-6.89.21l-1.05,1.06a5,5,0,0,0-.28,6.81l-3.03,3.02a1.389,1.389,0,0,0,1.97,1.96l3.98-3.97h0l6.24-6.23v-0.01l0.29-.29a1.709,1.709,0,0,1,.26-0.21l11.66-7.81a1.743,1.743,0,0,1,2.2.22l1.69,1.68a1.754,1.754,0,0,1,.21,2.2l-7.81,11.65a1.709,1.709,0,0,1-.21.26l-3.74,3.73-3.04,3.03h0l-9.79,9.78a1.747,1.747,0,0,1-2.46.01l-1.58-1.59,12.22-12.21a1.386,1.386,0,0,0-1.96-1.96l-12.23,12.21-1.98-1.98a1.738,1.738,0,0,1,0-2.46l2.17-2.17a1.389,1.389,0,1,0-1.97-1.96l-2.17,2.16a4.527,4.527,0,0,0,0,6.39l2.97,2.96v0.01h0l2.57,2.56a4.527,4.527,0,0,0,6.39,0l8.78-8.78,15.01,15.73-5.07,4.5a1.389,1.389,0,1,0,1.84,2.08l27.9-24.77a1.406,1.406,0,0,0,.47-0.97l0.49-8.77a3.5,3.5,0,0,1,1.2-2.46l5.01-4.45a3.511,3.511,0,0,1,2.59-.9l4.46,0.26a0.223,0.223,0,0,1,.22.17,0.242,0.242,0,0,1-.07.28l-8.02,7.12a3.035,3.035,0,0,0-.25,4.28l5.16,5.8a3.035,3.035,0,0,0,4.28.25l8.2-7.27a0.232,0.232,0,0,1,.28-0.04,0.25,0.25,0,0,1,.14.25l-0.28,4.78a3.542,3.542,0,0,1-1.2,2.46l-5.01,4.45a3.54,3.54,0,0,1-2.59.9l-8.71-.51a1.368,1.368,0,0,0-1,.35l-39.02,34.64a1.379,1.379,0,0,0-.41,1.42,2.55,2.55,0,0,1,.1.91l-0.43,7.37a2.629,2.629,0,0,1-.9,1.85l-5.53,4.91a2.6,2.6,0,0,1-1.94.67l-7.38-.43a2.629,2.629,0,0,1-1.85-.9l-4.91-5.52a2.678,2.678,0,0,1-.68-1.94l0.44-7.38a2.667,2.667,0,0,1,.9-1.85l5.52-4.9a2.687,2.687,0,0,1,1.95-.68l7.38,0.44a2.6,2.6,0,0,1,.94.23,1.4,1.4,0,0,0,1.49-.23l7.14-6.34a1.388,1.388,0,0,0-1.85-2.07l-6.53,5.79a5.966,5.966,0,0,0-1.03-.16l-7.38-.43a5.438,5.438,0,0,0-3.96,1.37l-5.52,4.9a5.466,5.466,0,0,0-1.83,3.77l-0.44,7.37a5.489,5.489,0,0,0,1.38,3.96l4.91,5.52a5.414,5.414,0,0,0,3.77,1.82l7.37,0.44c0.11,0,.22.01,0.33,0.01a5.474,5.474,0,0,0,3.63-1.38l5.53-4.91a5.411,5.411,0,0,0,1.82-3.76l0.44-7.38a4.928,4.928,0,0,0-.03-0.94l15.92-14.14,30.54,32a5.027,5.027,0,0,0,3.69,1.62h0a4.991,4.991,0,0,0,3.56-1.47l4.32-4.32A5.014,5.014,0,0,0,1088.38,2811.97Zm-76-60.34a2.248,2.248,0,0,1,.26-2.87l1.06-1.05a2.207,2.207,0,0,1,1.59-.66,2.255,2.255,0,0,1,1.28.4Zm26.74,28.06L1024,2763.85l4.8-4.79,16.19,15.42Zm47.44,37.56-4.32,4.31a2.237,2.237,0,0,1-3.24-.07,0.035,0.035,0,0,1-.02-0.01l-30.47-31.95,6.36-5.64,31.6,30.1a0.035,0.035,0,0,1,.02.01,2.208,2.208,0,0,1,.73,1.61A2.24,2.24,0,0,1,1086.56,2817.25Z" transform="translate(-1000 -2737)"/>
</svg>
