<svg xmlns="http://www.w3.org/2000/svg" width="92" height="89" viewBox="0 0 92 89">
  <metadata><?xpacket begin="﻿" id="W5M0MpCehiHzreSzNTczkc9d"?>
<x:xmpmeta xmlns:x="adobe:ns:meta/" x:xmptk="Adobe XMP Core 5.6-c142 79.160924, 2017/07/13-01:06:39        ">
   <rdf:RDF xmlns:rdf="http://www.w3.org/1999/02/22-rdf-syntax-ns#">
      <rdf:Description rdf:about=""/>
   </rdf:RDF>
</x:xmpmeta>
                                                                                                    
                                                                                                    
                                                                                                    
                                                                                                    
                                                                                                    
                                                                                                    
                                                                                                    
                                                                                                    
                                                                                                    
                                                                                                    
                                                                                                    
                                                                                                    
                                                                                                    
                                                                                                    
                                                                                                    
                                                                                                    
                                                                                                    
                                                                                                    
                                                                                                    
                                                                                                    
                           
<?xpacket end="w"?></metadata>
<defs>
    <style>
      .cls-1 {
        fill: #232323;
        fill-rule: evenodd;
      }
    </style>
  </defs>
  <path class="cls-1" d="M694.915,3070.17a1.644,1.644,0,0,0-1.5-1.14c-2.982-.12-13.807-0.16-27.97,4.48-13.294,4.35-24.775,11.46-33.2,20.56-14.975,16.18-15.333,31-14.213,38.4a1.646,1.646,0,0,0,3.256-.49c-1.032-6.82-.665-20.51,13.373-35.67,8.047-8.69,19.047-15.49,31.81-19.68a91.828,91.828,0,0,1,15.173-3.56,63.869,63.869,0,0,0-6.246,3.33,1.644,1.644,0,0,0,.856,3.05,1.566,1.566,0,0,0,.852-0.24,62.282,62.282,0,0,1,9.816-4.8,30.159,30.159,0,0,0-4.758,7.09c-2.754,5.76-3.682,12.61-2.838,20.94,0.92,9.07.077,17.58-2.439,24.61a32.785,32.785,0,0,1-14.685,18.02c-14.193,8.14-28.126,7.56-33.4,2.29a26.113,26.113,0,0,1-5.981-9.43,1.647,1.647,0,0,0-3.084,1.16,29.72,29.72,0,0,0,5.41,9.17c-9.192,6.06-20.433,6.44-20.552,6.45a1.645,1.645,0,0,0,.044,3.29h0.044c0.534-.01,12.759-0.42,22.849-7.38,3.189,2.53,8.039,3.94,13.617,3.94h0.508c4.979-.08,12.868-1.29,22.18-6.63a35.986,35.986,0,0,0,16.147-19.77c2.68-7.49,3.584-16.5,2.615-26.06-1.709-16.84,4.649-24.44,11.774-30.14A1.637,1.637,0,0,0,694.915,3070.17Zm-23.322,10.76a1.645,1.645,0,0,0-2.314-.26,47.631,47.631,0,0,0-11.5,13.18,29.133,29.133,0,0,1-.437-4.72,1.647,1.647,0,1,0-3.293,0c0,0.61.049,5.67,1.574,8.9-2.121,4.53-4.106,9.06-6.026,13.45q-1.111,2.535-2.211,5.03a22.128,22.128,0,0,1-2.18-11.58,1.647,1.647,0,0,0-3.282-.27,24.807,24.807,0,0,0,3.794,15.57,148.4,148.4,0,0,1-7.013,13.9,37.417,37.417,0,0,1-3.1-14.17,1.646,1.646,0,1,0-3.292,0,41.124,41.124,0,0,0,4.294,17.51,39.021,39.021,0,0,1-4.435,5.57,1.646,1.646,0,1,0,2.354,2.3c4.393-4.49,8.174-11.09,11.811-18.65a24.868,24.868,0,0,0,14.931-5.44,1.649,1.649,0,1,0-2.053-2.58,21.855,21.855,0,0,1-11.278,4.62c1.559-3.38,3.1-6.91,4.673-10.49q1.245-2.85,2.531-5.76h0.126a18.656,18.656,0,0,0,11.008-3.95,1.648,1.648,0,1,0-1.96-2.65,16.1,16.1,0,0,1-7.667,3.23c0.752-1.66,1.517-3.33,2.3-4.99a43.556,43.556,0,0,1,12.385-15.44A1.641,1.641,0,0,0,671.593,3080.93Zm-13.263,55.05a1.649,1.649,0,0,0-2.284-.46c-3.8,2.54-9.382,3.57-13.394,3.99a1.644,1.644,0,0,0,.169,3.28,1.01,1.01,0,0,0,.173-0.01c4.381-.45,10.518-1.61,14.879-4.52A1.642,1.642,0,0,0,658.33,3135.98Z" transform="translate(-603 -3069)"/>
</svg>
