<svg xmlns="http://www.w3.org/2000/svg" width="55" height="90" viewBox="0 0 55 90">
  <metadata><?xpacket begin="﻿" id="W5M0MpCehiHzreSzNTczkc9d"?>
<x:xmpmeta xmlns:x="adobe:ns:meta/" x:xmptk="Adobe XMP Core 5.6-c142 79.160924, 2017/07/13-01:06:39        ">
   <rdf:RDF xmlns:rdf="http://www.w3.org/1999/02/22-rdf-syntax-ns#">
      <rdf:Description rdf:about=""/>
   </rdf:RDF>
</x:xmpmeta>
                                                                                                    
                                                                                                    
                                                                                                    
                                                                                                    
                                                                                                    
                                                                                                    
                                                                                                    
                                                                                                    
                                                                                                    
                                                                                                    
                                                                                                    
                                                                                                    
                                                                                                    
                                                                                                    
                                                                                                    
                                                                                                    
                                                                                                    
                                                                                                    
                                                                                                    
                                                                                                    
                           
<?xpacket end="w"?></metadata>
<defs>
    <style>
      .cls-1 {
        fill: #232323;
        fill-rule: evenodd;
      }
    </style>
  </defs>
  <path class="cls-1" d="M681,2763.42A27.457,27.457,0,0,0,653.5,2736h-0.2a27.541,27.541,0,0,0-27.292,26.64,27.1,27.1,0,0,0,5.413,17.13,34.942,34.942,0,0,1,7.084,19.88h-0.6a1.8,1.8,0,0,0-1.8,1.8v9.25a10.329,10.329,0,0,0,10.335,10.3h0.629a6.626,6.626,0,0,0,12.847,0h0.628a10.329,10.329,0,0,0,10.335-10.3v-9.25a1.8,1.8,0,0,0-1.8-1.8h-0.6a34.09,34.09,0,0,1,6.873-19.6A27.113,27.113,0,0,0,681,2763.42Zm-27.5,58.99a3.022,3.022,0,0,1-2.561-1.41h5.122A3.022,3.022,0,0,1,653.5,2822.41Zm13.791-11.71a6.741,6.741,0,0,1-6.739,6.72h-14.1a6.705,6.705,0,0,1-4.758-1.97h17.192a1.79,1.79,0,1,0,0-3.58H639.812a6.726,6.726,0,0,1-.1-1.17v-1.35H653.87a1.8,1.8,0,1,0,0-3.59H639.708v-2.52H667.29v7.46Zm-2.4-11.05H642.106a38.52,38.52,0,0,0-7.8-22.02,23.527,23.527,0,0,1-4.7-14.89,24.058,24.058,0,0,1,23.722-23.15H653.5a23.822,23.822,0,0,1,19.007,38.29A37.65,37.65,0,0,0,664.893,2799.65Zm-2.486,6.11h-1.113a1.8,1.8,0,1,0,0,3.59h1.113A1.8,1.8,0,1,0,662.407,2805.76ZM651.88,2744c-11.118,0-15.694,7.77-16.88,15a3.039,3.039,0,0,0,.8,3.31,2.125,2.125,0,0,0,3-.06c1.931-8.08,3.136-14.05,13.084-14.05A2.1,2.1,0,1,0,651.88,2744Zm-14.572,22.14a2.142,2.142,0,0,0-2.941.58l0,0.01a2.084,2.084,0,0,0,.577,2.91,2.13,2.13,0,0,0,2.945-.57,0.067,0.067,0,0,0,.02-0.03A2.084,2.084,0,0,0,637.308,2766.14Z" transform="translate(-626 -2736)"/>
</svg>
