<svg xmlns="http://www.w3.org/2000/svg" width="66" height="90" viewBox="0 0 66 90">
  <metadata><?xpacket begin="﻿" id="W5M0MpCehiHzreSzNTczkc9d"?>
<x:xmpmeta xmlns:x="adobe:ns:meta/" x:xmptk="Adobe XMP Core 5.6-c142 79.160924, 2017/07/13-01:06:39        ">
   <rdf:RDF xmlns:rdf="http://www.w3.org/1999/02/22-rdf-syntax-ns#">
      <rdf:Description rdf:about=""/>
   </rdf:RDF>
</x:xmpmeta>
                                                                                                    
                                                                                                    
                                                                                                    
                                                                                                    
                                                                                                    
                                                                                                    
                                                                                                    
                                                                                                    
                                                                                                    
                                                                                                    
                                                                                                    
                                                                                                    
                                                                                                    
                                                                                                    
                                                                                                    
                                                                                                    
                                                                                                    
                                                                                                    
                                                                                                    
                                                                                                    
                           
<?xpacket end="w"?></metadata>
<defs>
    <style>
      .cls-1 {
        fill: #232323;
        fill-rule: evenodd;
      }
    </style>
  </defs>
  <path class="cls-1" d="M1074.6,3108.68a8.383,8.383,0,0,1,0-12.63c3.63-3.3,3.71-5.79,3.14-7.29-0.54-1.42-2.1-3.12-6.45-3.12-0.3,0-.62.01-0.93,0.03a8.358,8.358,0,0,1-6.6-2.56,8.591,8.591,0,0,1-2.25-6.38c0.15-3-.39-5.18-1.62-6.49a3.831,3.831,0,0,0-2.85-1.24c-1.81,0-3.76,1.15-5.79,3.43a8.185,8.185,0,0,1-12.5,0c-2.03-2.28-3.98-3.43-5.79-3.43a3.831,3.831,0,0,0-2.85,1.24c-1.23,1.31-1.77,3.49-1.62,6.49a8.591,8.591,0,0,1-2.25,6.38,8.27,8.27,0,0,1-6.11,2.57h0c-0.16,0-.33,0-0.48-0.01-0.33-.02-0.64-0.03-0.94-0.03-4.35,0-5.91,1.7-6.45,3.12-0.57,1.5-.49,3.99,3.14,7.29a8.383,8.383,0,0,1,0,12.63c-3.63,3.31-3.71,5.8-3.14,7.3,0.54,1.42,2.1,3.12,6.44,3.12,0.3,0,.62-0.01.94-0.03a8.468,8.468,0,0,1,5.74,1.77l-11.48,27.36a1.9,1.9,0,0,0,.2,1.83,1.841,1.841,0,0,0,1.64.77l10.43-.78,5.37,8.14a1.824,1.824,0,0,0,1.54.84,1.21,1.21,0,0,0,.19-0.01,1.868,1.868,0,0,0,1.53-1.16l10.14-25.44,11.18,25.5a1.85,1.85,0,0,0,1.54,1.1,0.808,0.808,0,0,0,.16.01,1.85,1.85,0,0,0,1.54-.84l5.37-8.14,10.42,0.78a1.845,1.845,0,0,0,1.65-.78,1.9,1.9,0,0,0,.19-1.84l-12-27.62a8.392,8.392,0,0,1,4.88-1.5c0.16,0,.32,0,0.48.01,0.33,0.02.64,0.03,0.95,0.03h0c4.34,0,5.9-1.7,6.44-3.12C1078.31,3114.47,1078.23,3111.99,1074.6,3108.68Zm-41.92,44.45-4.02-6.1a1.86,1.86,0,0,0-1.68-.83l-8.48.64,9.43-22.48a8.982,8.982,0,0,1,.56,3.64c-0.15,3,.39,5.19,1.62,6.49a3.8,3.8,0,0,0,2.85,1.25h0c1.81,0,3.76-1.16,5.79-3.43a8.725,8.725,0,0,1,3.12-2.27Zm39.67-6.3-8.43-.63a1.849,1.849,0,0,0-1.68.83l-4.1,6.22-10.21-23.29a8.766,8.766,0,0,1,3.32,2.35c2.03,2.27,3.98,3.43,5.79,3.43a3.8,3.8,0,0,0,2.85-1.25c1.23-1.3,1.77-3.49,1.62-6.48a9.085,9.085,0,0,1,.81-4.27Zm1.92-32.2c-0.05.14-.75,0.72-2.97,0.72-0.24,0-.49-0.01-0.76-0.02-0.22-.02-0.45-0.02-0.67-0.02a11.939,11.939,0,0,0-8.8,3.74,12.265,12.265,0,0,0-3.26,9.15c0.11,2.15-.26,3.34-0.61,3.71a0.17,0.17,0,0,1-.16.08c-0.11,0-1.14-.07-3.04-2.2a11.853,11.853,0,0,0-18,0c-1.9,2.13-2.93,2.2-3.04,2.2a0.17,0.17,0,0,1-.16-0.08c-0.35-.37-0.72-1.56-0.61-3.71a12.265,12.265,0,0,0-3.26-9.15,11.977,11.977,0,0,0-9.48-3.72c-0.26.01-.51,0.02-0.75,0.02-2.22,0-2.92-.58-2.98-0.72-0.06-.17.11-1.29,2.16-3.16a12.149,12.149,0,0,0,0-18.2c-2.05-1.87-2.22-2.99-2.16-3.16,0.06-.14.76-0.72,2.99-0.72,0.23,0,.49.01,0.75,0.02,0.22,0.01.45,0.02,0.67,0.02h0a11.955,11.955,0,0,0,8.8-3.74,12.265,12.265,0,0,0,3.26-9.15c-0.11-2.15.26-3.35,0.61-3.72a0.183,0.183,0,0,1,.16-0.07c0.11,0,1.14.06,3.04,2.19a11.853,11.853,0,0,0,18,0c1.9-2.13,2.93-2.19,3.04-2.19a0.186,0.186,0,0,1,.17.08c0.34,0.36.71,1.56,0.6,3.71a12.265,12.265,0,0,0,3.26,9.15,11.955,11.955,0,0,0,8.8,3.74c0.22,0,.45-0.01.68-0.02,0.25-.01.51-0.02,0.74-0.02,2.23,0,2.93.58,2.99,0.72,0.06,0.17-.11,1.29-2.16,3.16a12.149,12.149,0,0,0,0,18.2C1074.17,3113.34,1074.34,3114.46,1074.27,3114.63Zm-29.16-29.01a17.936,17.936,0,1,0,17.73,17.93A17.861,17.861,0,0,0,1045.11,3085.62Zm0,32.12a14.186,14.186,0,1,1,14.02-14.19A14.127,14.127,0,0,1,1045.11,3117.74Zm0.72-23.76a10.715,10.715,0,0,0-4.87.8c-2.32.99-5.2,3.29-5.8,8.62a1.874,1.874,0,0,0,1.64,2.07,1.477,1.477,0,0,0,.21.01,1.858,1.858,0,0,0,1.84-1.66c0.72-6.45,6-6.16,6.61-6.11A1.874,1.874,0,0,0,1045.83,3093.98Z" transform="translate(-1012 -3069)"/>
</svg>
