<svg xmlns="http://www.w3.org/2000/svg" width="95" height="90" viewBox="0 0 95 90">
  <metadata><?xpacket begin="﻿" id="W5M0MpCehiHzreSzNTczkc9d"?>
<x:xmpmeta xmlns:x="adobe:ns:meta/" x:xmptk="Adobe XMP Core 5.6-c142 79.160924, 2017/07/13-01:06:39        ">
   <rdf:RDF xmlns:rdf="http://www.w3.org/1999/02/22-rdf-syntax-ns#">
      <rdf:Description rdf:about=""/>
   </rdf:RDF>
</x:xmpmeta>
                                                                                                    
                                                                                                    
                                                                                                    
                                                                                                    
                                                                                                    
                                                                                                    
                                                                                                    
                                                                                                    
                                                                                                    
                                                                                                    
                                                                                                    
                                                                                                    
                                                                                                    
                                                                                                    
                                                                                                    
                                                                                                    
                                                                                                    
                                                                                                    
                                                                                                    
                                                                                                    
                           
<?xpacket end="w"?></metadata>
<defs>
    <style>
      .cls-1 {
        fill: #232323;
        fill-rule: evenodd;
      }
    </style>
  </defs>
  <path class="cls-1" d="M312,3101.7a1.893,1.893,0,0,0-3.785,0,3.53,3.53,0,0,1-2.573,3.38,30.839,30.839,0,0,0-9.718-11.49,45.72,45.72,0,0,0-21.009-8.28,10.1,10.1,0,0,0,2.929-7.12,10.23,10.23,0,1,0-17.52,7.14,48.207,48.207,0,0,0-11.774,3.24,14.458,14.458,0,0,0-15.373-2.2,1.88,1.88,0,0,0-.6,3l5.28,5.66a33.026,33.026,0,0,0-7.369,8.58h-9.443a4.043,4.043,0,0,0-4.043,4.03v11.07a4.009,4.009,0,0,0,2.831,3.84l8.485,2.66c2.385,6.8,7.93,10.31,11.655,12.67,0.146,0.09.288,0.18,0.429,0.27l2.587,18.23a1.889,1.889,0,0,0,1.874,1.62h8.94a1.889,1.889,0,0,0,1.874-1.62l1.613-11.37a53.5,53.5,0,0,0,21.037-.11l1.63,11.48a1.889,1.889,0,0,0,1.873,1.62h8.941a1.889,1.889,0,0,0,1.874-1.62l2.655-18.71c8.072-5.76,12.683-13.84,12.683-22.27a23.778,23.778,0,0,0-.989-6.79A7.306,7.306,0,0,0,312,3101.7Zm-44.386-29.93a6.42,6.42,0,1,1-6.445,6.42A6.441,6.441,0,0,1,267.614,3071.77Zm24.858,63.27a1.851,1.851,0,0,0-.806,1.29l-2.54,17.9h-5.653l-1.689-11.9a1.889,1.889,0,0,0-2.338-1.56,48.646,48.646,0,0,1-11.932,1.46,49.3,49.3,0,0,1-11.372-1.32,1.886,1.886,0,0,0-2.316,1.56l-1.669,11.76H246.5l-2.477-17.46a1.86,1.86,0,0,0-.84-1.31c-0.376-.25-0.773-0.5-1.186-0.76-3.826-2.42-8.588-5.44-10.365-11.52a1.858,1.858,0,0,0-1.25-1.27l-9.421-2.95a0.261,0.261,0,0,1-.18-0.25v-11.07a0.261,0.261,0,0,1,.257-0.26H231.6a1.9,1.9,0,0,0,1.675-1.01,29.673,29.673,0,0,1,8.493-9.63,1.88,1.88,0,0,0,.249-2.79l-4.624-4.95a10.636,10.636,0,0,1,9.4,3.1,1.885,1.885,0,0,0,2.153.41,45.244,45.244,0,0,1,18.566-3.93c20.227,0,36.683,12.03,36.683,26.82C304.2,3122.81,299.923,3129.96,292.472,3135.04Zm-52.082-33.23a1.893,1.893,0,0,0-1.892,1.89v2.2a1.893,1.893,0,0,0,3.785,0v-2.2A1.894,1.894,0,0,0,240.39,3101.81Zm34.357-10.4h-1.206a1.885,1.885,0,1,0,0,3.77h1.206A1.885,1.885,0,1,0,274.747,3091.41Zm-8.841,0h-6.429a1.885,1.885,0,1,0,0,3.77h6.429A1.885,1.885,0,1,0,265.906,3091.41Z" transform="translate(-217 -3068)"/>
</svg>
